<?xml version="1.0" encoding="utf-8"?>
<!-- Generator: Adobe Illustrator 16.0.0, SVG Export Plug-In . SVG Version: 6.00 Build 0)  -->
<!DOCTYPE svg PUBLIC "-//W3C//DTD SVG 1.1//EN" "http://www.w3.org/Graphics/SVG/1.1/DTD/svg11.dtd">
<svg version="1.1" id="Layer_1" xmlns="http://www.w3.org/2000/svg" xmlns:xlink="http://www.w3.org/1999/xlink" x="0px" y="0px"
	 width="284.841px" height="85.838px" viewBox="0 0 284.841 85.838" enable-background="new 0 0 284.841 85.838"
	 xml:space="preserve">
<g>
	<g>
		<path fill-rule="evenodd" clip-rule="evenodd" fill="#FF9900" d="M176.711,67.129c-16.549,12.213-40.543,18.709-61.203,18.709
			c-28.957,0-55.031-10.703-74.765-28.521c-1.549-1.398-0.167-3.311,1.695-2.227c21.289,12.389,47.615,19.85,74.808,19.85
			c18.343,0,38.507-3.807,57.06-11.676C177.104,62.076,179.45,65.107,176.711,67.129z"/>
		<path fill-rule="evenodd" clip-rule="evenodd" fill="#FF9900" d="M183.599,59.268c-2.117-2.711-13.993-1.285-19.328-0.646
			c-1.615,0.193-1.866-1.217-0.409-2.24c9.473-6.654,24.995-4.732,26.799-2.506c1.818,2.248-0.476,17.811-9.354,25.238
			c-1.365,1.143-2.664,0.533-2.059-0.977C181.244,73.148,185.717,61.979,183.599,59.268z"/>
	</g>
	<g>
		<path fill-rule="evenodd" clip-rule="evenodd" fill="#FFFFFF" d="M164.647,9.376V2.911c0.004-0.984,0.745-1.64,1.639-1.638
			l28.978-0.003c0.927,0,1.67,0.675,1.672,1.633l-0.002,5.545c-0.007,0.93-0.79,2.144-2.182,4.07l-15.01,21.431
			c5.572-0.131,11.466,0.703,16.528,3.549c1.142,0.641,1.447,1.592,1.537,2.524v6.898c0,0.951-1.04,2.051-2.133,1.479
			c-8.92-4.672-20.756-5.183-30.618,0.057c-1.008,0.537-2.063-0.547-2.063-1.498v-6.558c0-1.049,0.02-2.844,1.078-4.444
			l17.391-24.949l-15.142-0.003C165.396,11.003,164.653,10.344,164.647,9.376z"/>
		<path fill-rule="evenodd" clip-rule="evenodd" fill="#FFFFFF" d="M58.943,49.758h-8.815c-0.839-0.055-1.51-0.686-1.577-1.49
			l0.006-45.247c0-0.905,0.762-1.629,1.701-1.629l8.21-0.002c0.859,0.044,1.549,0.694,1.604,1.52v5.907h0.165
			c2.14-5.713,6.172-8.379,11.603-8.379c5.514,0,8.97,2.666,11.439,8.379c2.139-5.713,6.994-8.379,12.179-8.379
			c3.703,0,7.735,1.523,10.204,4.951c2.798,3.809,2.223,9.331,2.223,14.187l-0.007,28.553c0,0.904-0.762,1.629-1.7,1.629h-8.806
			c-0.885-0.057-1.583-0.758-1.583-1.625l-0.002-23.987c0-1.904,0.165-6.665-0.247-8.475c-0.658-3.046-2.633-3.903-5.184-3.903
			c-2.14,0-4.362,1.428-5.268,3.713s-0.822,6.093-0.822,8.665v23.983c0,0.904-0.762,1.629-1.7,1.629H73.76
			c-0.885-0.057-1.583-0.758-1.583-1.625l-0.009-23.987c0-5.046,0.823-12.473-5.431-12.473c-6.337,0-6.09,7.236-6.09,12.473
			l-0.004,23.983C60.645,49.033,59.883,49.758,58.943,49.758z"/>
		<path fill-rule="evenodd" clip-rule="evenodd" fill="#FFFFFF" d="M221.881,0.438c13.085,0,20.161,11.235,20.161,25.517
			c0,13.806-7.816,24.756-20.161,24.756c-12.838,0-19.833-11.236-19.833-25.232C202.048,11.387,209.125,0.438,221.881,0.438z
			 M221.963,9.673c-6.502,0-6.913,8.854-6.913,14.377s-0.082,17.329,6.831,17.329c6.831,0,7.159-9.521,7.159-15.329
			c0-3.809-0.164-8.379-1.316-11.997C226.735,10.911,224.76,9.673,221.963,9.673z"/>
		<path fill-rule="evenodd" clip-rule="evenodd" fill="#FFFFFF" d="M259.011,49.758h-8.783c-0.883-0.057-1.582-0.758-1.582-1.625
			l-0.014-45.264c0.074-0.827,0.805-1.477,1.693-1.477l8.178-0.002c0.77,0.04,1.404,0.565,1.566,1.268v6.921h0.166
			c2.469-6.189,5.924-9.141,12.014-9.141c3.949,0,7.818,1.428,10.287,5.332c2.305,3.618,2.305,9.712,2.305,14.092v28.471
			c-0.1,0.803-0.818,1.426-1.689,1.426h-8.838c-0.816-0.053-1.475-0.652-1.57-1.426V23.765c0-4.951,0.576-12.188-5.514-12.188
			c-2.141,0-4.115,1.428-5.102,3.618c-1.234,2.761-1.4,5.522-1.4,8.569v24.364C260.712,49.033,259.95,49.758,259.011,49.758z"/>
		<path fill-rule="evenodd" clip-rule="evenodd" fill="#FFFFFF" d="M141.547,28.15c0,3.436,0.082,6.298-1.649,9.352
			c-1.402,2.481-3.629,4.008-6.104,4.008c-3.381,0-5.36-2.577-5.36-6.394c0-7.508,6.735-8.874,13.113-8.874V28.15z M150.435,49.645
			c-0.584,0.523-1.425,0.559-2.083,0.205c-2.928-2.434-3.452-3.559-5.053-5.875c-4.84,4.93-8.268,6.408-14.535,6.408
			c-7.422,0-13.195-4.58-13.195-13.74c0-7.157,3.876-12.023,9.401-14.409c4.783-2.1,11.464-2.481,16.577-3.054v-1.145
			c0-2.099,0.165-4.581-1.072-6.393c-1.072-1.623-3.134-2.291-4.948-2.291c-3.362,0-6.352,1.723-7.086,5.294
			c-0.152,0.794-0.732,1.58-1.531,1.621l-8.545-0.925c-0.722-0.163-1.523-0.741-1.315-1.843C119.013,3.132,128.374,0,136.764,0
			c4.288,0,9.896,1.145,13.277,4.39c4.289,4.008,3.876,9.352,3.876,15.172v13.735c0,4.131,1.717,5.944,3.328,8.17
			c0.563,0.802,0.689,1.756-0.029,2.341c-1.801,1.51-5,4.289-6.761,5.855L150.435,49.645z"/>
		<path fill-rule="evenodd" clip-rule="evenodd" fill="#FFFFFF" d="M25.978,28.15c0,3.436,0.083,6.298-1.649,9.352
			c-1.401,2.481-3.628,4.008-6.103,4.008c-3.381,0-5.36-2.577-5.36-6.394c0-7.508,6.735-8.874,13.112-8.874V28.15z M34.866,49.645
			c-0.584,0.523-1.426,0.559-2.083,0.205c-2.929-2.434-3.453-3.559-5.054-5.875c-4.839,4.93-8.267,6.408-14.534,6.408
			C5.772,50.383,0,45.803,0,36.643c0-7.157,3.876-12.023,9.401-14.409c4.783-2.1,11.464-2.481,16.576-3.054v-1.145
			c0-2.099,0.165-4.581-1.071-6.393c-1.072-1.623-3.135-2.291-4.948-2.291c-3.362,0-6.353,1.723-7.086,5.294
			c-0.153,0.794-0.732,1.58-1.532,1.621l-8.544-0.925C2.074,15.179,1.271,14.6,1.48,13.499C3.443,3.132,12.805,0,21.194,0
			c4.289,0,9.896,1.145,13.278,4.39c4.288,4.008,3.876,9.352,3.876,15.172v13.735c0,4.131,1.716,5.944,3.327,8.17
			c0.563,0.802,0.689,1.756-0.028,2.341c-1.801,1.51-5.001,4.289-6.761,5.855L34.866,49.645z"/>
	</g>
</g>
</svg>
